<mxfile host="app.diagrams.net" modified="2021-05-22T13:24:31.278Z" agent="5.0 (Windows NT 10.0; Win64; x64) AppleWebKit/537.36 (KHTML, like Gecko) Chrome/90.0.4430.212 Safari/537.36" etag="GMb5q2TpUZwGuRqGrZyI" version="14.7.0" type="github">
  <diagram id="-7mgtRgSppNahOTFFyv_" name="Page-1">
    <mxGraphModel dx="1422" dy="800" grid="1" gridSize="10" guides="1" tooltips="1" connect="1" arrows="1" fold="1" page="1" pageScale="1" pageWidth="827" pageHeight="1169" math="0" shadow="0">
      <root>
        <mxCell id="0" />
        <mxCell id="1" parent="0" />
        <mxCell id="Qb0waAV6xGORPOU0jVoa-1" value="" style="rounded=0;whiteSpace=wrap;html=1;" vertex="1" parent="1">
          <mxGeometry x="113" y="168" width="269" height="381" as="geometry" />
        </mxCell>
        <mxCell id="Qb0waAV6xGORPOU0jVoa-2" value="CSPDarknet53-tiny" style="text;html=1;resizable=0;autosize=1;align=center;verticalAlign=middle;points=[];rounded=0;strokeWidth=5;perimeterSpacing=6;fontStyle=0;fontSize=16;" vertex="1" parent="1">
          <mxGeometry x="128" y="178" width="147" height="23" as="geometry" />
        </mxCell>
        <mxCell id="Qb0waAV6xGORPOU0jVoa-3" value="" style="rounded=0;whiteSpace=wrap;html=1;strokeWidth=1;fontSize=16;" vertex="1" parent="1">
          <mxGeometry x="133" y="220" width="228" height="28" as="geometry" />
        </mxCell>
        <mxCell id="Qb0waAV6xGORPOU0jVoa-4" value="&lt;font style=&quot;font-size: 13px;&quot;&gt;Inputs(3, 608, 608)&lt;/font&gt;" style="text;html=1;resizable=0;autosize=1;align=center;verticalAlign=middle;points=[];fillColor=none;strokeColor=none;rounded=0;fontSize=13;" vertex="1" parent="1">
          <mxGeometry x="187" y="224" width="121" height="20" as="geometry" />
        </mxCell>
        <mxCell id="Qb0waAV6xGORPOU0jVoa-5" value="&lt;span style=&quot;color: rgb(0, 0, 0); font-family: helvetica; font-style: normal; font-weight: 400; letter-spacing: normal; text-align: center; text-indent: 0px; text-transform: none; word-spacing: 0px; background-color: rgb(248, 249, 250); display: inline; float: none; font-size: 7px;&quot;&gt;&lt;font style=&quot;font-size: 7px;&quot;&gt;DarknetConv2D_BN_Leaky(32, 304, 304)&lt;/font&gt;&lt;/span&gt;" style="rounded=0;whiteSpace=wrap;html=1;strokeWidth=1;fontSize=7;" vertex="1" parent="1">
          <mxGeometry x="133" y="267" width="229" height="28" as="geometry" />
        </mxCell>
        <mxCell id="Qb0waAV6xGORPOU0jVoa-6" value="&lt;span style=&quot;color: rgb(0 , 0 , 0) ; font-family: &amp;#34;helvetica&amp;#34; ; font-style: normal ; font-weight: 400 ; letter-spacing: normal ; text-align: center ; text-indent: 0px ; text-transform: none ; word-spacing: 0px ; background-color: rgb(248 , 249 , 250) ; display: inline ; float: none ; font-size: 7px&quot;&gt;&lt;font style=&quot;font-size: 7px&quot;&gt;DarknetConv2D_BN_Leaky(64, 152, 152)&lt;/font&gt;&lt;/span&gt;" style="rounded=0;whiteSpace=wrap;html=1;strokeWidth=1;fontSize=7;" vertex="1" parent="1">
          <mxGeometry x="132.5" y="313" width="229" height="28" as="geometry" />
        </mxCell>
        <mxCell id="Qb0waAV6xGORPOU0jVoa-7" value="" style="endArrow=classic;html=1;fontSize=7;" edge="1" parent="1">
          <mxGeometry width="50" height="50" relative="1" as="geometry">
            <mxPoint x="247.16000000000008" y="248" as="sourcePoint" />
            <mxPoint x="247.16000000000008" y="267" as="targetPoint" />
          </mxGeometry>
        </mxCell>
        <mxCell id="Qb0waAV6xGORPOU0jVoa-8" value="" style="endArrow=classic;html=1;fontSize=7;" edge="1" parent="1">
          <mxGeometry width="50" height="50" relative="1" as="geometry">
            <mxPoint x="246.66000000000008" y="295" as="sourcePoint" />
            <mxPoint x="246.66000000000008" y="314" as="targetPoint" />
          </mxGeometry>
        </mxCell>
        <mxCell id="Qb0waAV6xGORPOU0jVoa-9" value="&lt;span style=&quot;color: rgb(0 , 0 , 0) ; font-family: &amp;#34;helvetica&amp;#34; ; font-style: normal ; font-weight: 400 ; letter-spacing: normal ; text-align: center ; text-indent: 0px ; text-transform: none ; word-spacing: 0px ; background-color: rgb(248 , 249 , 250) ; display: inline ; float: none ; font-size: 7px&quot;&gt;&lt;font style=&quot;font-size: 7px&quot;&gt;Resblock_body(128, 76, 76)&lt;/font&gt;&lt;/span&gt;" style="rounded=0;whiteSpace=wrap;html=1;strokeWidth=1;fontSize=7;" vertex="1" parent="1">
          <mxGeometry x="133" y="359" width="229" height="28" as="geometry" />
        </mxCell>
        <mxCell id="Qb0waAV6xGORPOU0jVoa-10" value="" style="endArrow=classic;html=1;fontSize=7;" edge="1" parent="1">
          <mxGeometry width="50" height="50" relative="1" as="geometry">
            <mxPoint x="247.16000000000008" y="341" as="sourcePoint" />
            <mxPoint x="247.16000000000008" y="360" as="targetPoint" />
          </mxGeometry>
        </mxCell>
        <mxCell id="Qb0waAV6xGORPOU0jVoa-11" value="&lt;span style=&quot;color: rgb(0 , 0 , 0) ; font-family: &amp;#34;helvetica&amp;#34; ; font-style: normal ; font-weight: 400 ; letter-spacing: normal ; text-align: center ; text-indent: 0px ; text-transform: none ; word-spacing: 0px ; background-color: rgb(248 , 249 , 250) ; display: inline ; float: none ; font-size: 7px&quot;&gt;&lt;font style=&quot;font-size: 7px&quot;&gt;Resblock_body(256, 38, 38)&lt;/font&gt;&lt;/span&gt;" style="rounded=0;whiteSpace=wrap;html=1;strokeWidth=1;fontSize=7;" vertex="1" parent="1">
          <mxGeometry x="133" y="405" width="229" height="28" as="geometry" />
        </mxCell>
        <mxCell id="Qb0waAV6xGORPOU0jVoa-12" value="&lt;span style=&quot;color: rgb(0 , 0 , 0) ; font-family: &amp;#34;helvetica&amp;#34; ; font-style: normal ; font-weight: 400 ; letter-spacing: normal ; text-align: center ; text-indent: 0px ; text-transform: none ; word-spacing: 0px ; background-color: rgb(248 , 249 , 250) ; display: inline ; float: none ; font-size: 7px&quot;&gt;&lt;font style=&quot;font-size: 7px&quot;&gt;Resblock_body(512, 19, 19)&lt;/font&gt;&lt;/span&gt;" style="rounded=0;whiteSpace=wrap;html=1;strokeWidth=1;fontSize=7;" vertex="1" parent="1">
          <mxGeometry x="133" y="451" width="229" height="28" as="geometry" />
        </mxCell>
        <mxCell id="Qb0waAV6xGORPOU0jVoa-13" value="" style="endArrow=classic;html=1;fontSize=7;" edge="1" parent="1">
          <mxGeometry width="50" height="50" relative="1" as="geometry">
            <mxPoint x="246.66000000000008" y="387" as="sourcePoint" />
            <mxPoint x="246.66000000000008" y="406" as="targetPoint" />
          </mxGeometry>
        </mxCell>
        <mxCell id="Qb0waAV6xGORPOU0jVoa-14" value="" style="endArrow=classic;html=1;fontSize=7;" edge="1" parent="1">
          <mxGeometry width="50" height="50" relative="1" as="geometry">
            <mxPoint x="247.16000000000008" y="432" as="sourcePoint" />
            <mxPoint x="247.16000000000008" y="451" as="targetPoint" />
          </mxGeometry>
        </mxCell>
        <mxCell id="Qb0waAV6xGORPOU0jVoa-15" value="&lt;span style=&quot;color: rgb(0 , 0 , 0) ; font-family: &amp;#34;helvetica&amp;#34; ; font-style: normal ; font-weight: 400 ; letter-spacing: normal ; text-align: center ; text-indent: 0px ; text-transform: none ; word-spacing: 0px ; background-color: rgb(248 , 249 , 250) ; display: inline ; float: none ; font-size: 7px&quot;&gt;&lt;font style=&quot;font-size: 7px&quot;&gt;DarknetConv2D_BN_Leaky(512, 19, 19)&lt;/font&gt;&lt;/span&gt;" style="rounded=0;whiteSpace=wrap;html=1;strokeWidth=1;fontSize=7;" vertex="1" parent="1">
          <mxGeometry x="133" y="497" width="229" height="28" as="geometry" />
        </mxCell>
        <mxCell id="Qb0waAV6xGORPOU0jVoa-16" value="" style="endArrow=classic;html=1;fontSize=7;" edge="1" parent="1">
          <mxGeometry width="50" height="50" relative="1" as="geometry">
            <mxPoint x="247.16000000000008" y="478" as="sourcePoint" />
            <mxPoint x="247.16000000000008" y="497" as="targetPoint" />
          </mxGeometry>
        </mxCell>
        <mxCell id="Qb0waAV6xGORPOU0jVoa-18" value="" style="endArrow=classic;html=1;" edge="1" parent="1">
          <mxGeometry width="50" height="50" relative="1" as="geometry">
            <mxPoint x="247" y="530" as="sourcePoint" />
            <mxPoint x="247" y="570" as="targetPoint" />
          </mxGeometry>
        </mxCell>
      </root>
    </mxGraphModel>
  </diagram>
</mxfile>
